<?xml version="1.0" encoding="UTF-8" standalone="no"?>
<!-- Created with Inkscape (http://www.inkscape.org/) -->

<svg
   width="64pt"
   height="64pt"
   viewBox="0 0 22.577778 22.577778"
   version="1.1"
   id="svg831"
   inkscape:version="1.1.2 (1:1.1+202202050950+0a00cf5339)"
   sodipodi:docname="25 - Rubik.svg"
   inkscape:export-filename="C:\Users\User\Desktop\CARLOS PROJECT\6. JUNI 1\Done\1\EXPAND\24 - Children Toy Ship.png"
   inkscape:export-xdpi="576"
   inkscape:export-ydpi="576"
   xmlns:inkscape="http://www.inkscape.org/namespaces/inkscape"
   xmlns:sodipodi="http://sodipodi.sourceforge.net/DTD/sodipodi-0.dtd"
   xmlns="http://www.w3.org/2000/svg"
   xmlns:svg="http://www.w3.org/2000/svg"
   xmlns:rdf="http://www.w3.org/1999/02/22-rdf-syntax-ns#"
   xmlns:cc="http://creativecommons.org/ns#"
   xmlns:dc="http://purl.org/dc/elements/1.1/">
  <defs
     id="defs825">
    <pattern
       id="EMFhbasepattern"
       patternUnits="userSpaceOnUse"
       width="6"
       height="6"
       x="0"
       y="0" />
    <pattern
       id="EMFhbasepattern-9"
       patternUnits="userSpaceOnUse"
       width="6"
       height="6"
       x="0"
       y="0" />
    <pattern
       id="EMFhbasepattern-0"
       patternUnits="userSpaceOnUse"
       width="6"
       height="6"
       x="0"
       y="0" />
    <pattern
       id="EMFhbasepattern-7"
       patternUnits="userSpaceOnUse"
       width="6"
       height="6"
       x="0"
       y="0" />
    <pattern
       id="EMFhbasepattern-2"
       patternUnits="userSpaceOnUse"
       width="6"
       height="6"
       x="0"
       y="0" />
    <pattern
       id="EMFhbasepattern-98"
       patternUnits="userSpaceOnUse"
       width="6"
       height="6"
       x="0"
       y="0" />
    <pattern
       id="EMFhbasepattern-6"
       patternUnits="userSpaceOnUse"
       width="6"
       height="6"
       x="0"
       y="0" />
    <pattern
       id="EMFhbasepattern-01"
       patternUnits="userSpaceOnUse"
       width="6"
       height="6"
       x="0"
       y="0" />
    <pattern
       id="EMFhbasepattern-07"
       patternUnits="userSpaceOnUse"
       width="6"
       height="6"
       x="0"
       y="0" />
    <pattern
       id="EMFhbasepattern-8"
       patternUnits="userSpaceOnUse"
       width="6"
       height="6"
       x="0"
       y="0" />
    <pattern
       id="EMFhbasepattern-4"
       patternUnits="userSpaceOnUse"
       width="6"
       height="6"
       x="0"
       y="0" />
    <pattern
       id="EMFhbasepattern-40"
       patternUnits="userSpaceOnUse"
       width="6"
       height="6"
       x="0"
       y="0" />
    <pattern
       id="EMFhbasepattern-08"
       patternUnits="userSpaceOnUse"
       width="6"
       height="6"
       x="0"
       y="0" />
    <pattern
       id="EMFhbasepattern-04"
       patternUnits="userSpaceOnUse"
       width="6"
       height="6"
       x="0"
       y="0" />
    <pattern
       id="EMFhbasepattern-014"
       patternUnits="userSpaceOnUse"
       width="6"
       height="6"
       x="0"
       y="0" />
    <pattern
       id="EMFhbasepattern-27"
       patternUnits="userSpaceOnUse"
       width="6"
       height="6"
       x="0"
       y="0" />
    <pattern
       id="EMFhbasepattern-09"
       patternUnits="userSpaceOnUse"
       width="6"
       height="6"
       x="0"
       y="0" />
    <pattern
       id="EMFhbasepattern-5"
       patternUnits="userSpaceOnUse"
       width="6"
       height="6"
       x="0"
       y="0" />
    <pattern
       id="EMFhbasepattern-018"
       patternUnits="userSpaceOnUse"
       width="6"
       height="6"
       x="0"
       y="0" />
  </defs>
  <sodipodi:namedview
     id="base"
     pagecolor="#ffffff"
     bordercolor="#666666"
     borderopacity="1.0"
     inkscape:pageopacity="0.0"
     inkscape:pageshadow="2"
     inkscape:zoom="2.2939453"
     inkscape:cx="18.527033"
     inkscape:cy="23.97616"
     inkscape:document-units="pt"
     inkscape:current-layer="layer1"
     showgrid="false"
     units="pt"
     inkscape:window-width="1366"
     inkscape:window-height="705"
     inkscape:window-x="0"
     inkscape:window-y="31"
     inkscape:window-maximized="1"
     inkscape:pagecheckerboard="true"
     inkscape:showpageshadow="false"
     inkscape:object-paths="true"
     inkscape:snap-intersection-paths="true"
     inkscape:snap-smooth-nodes="true"
     inkscape:snap-midpoints="true"
     showguides="true"
     inkscape:snap-bbox="true"
     inkscape:bbox-nodes="true"
     inkscape:snap-nodes="false"
     inkscape:snap-global="true">
    <inkscape:grid
       type="xygrid"
       id="grid1378" />
    <sodipodi:guide
       position="0.97013831,21.607643"
       orientation="78.000048,0"
       id="guide1380"
       inkscape:locked="false" />
    <sodipodi:guide
       position="0.97013831,0.97013129"
       orientation="0,78.000005"
       id="guide1382"
       inkscape:locked="false" />
    <sodipodi:guide
       position="21.607639,0.97013129"
       orientation="-78.000048,0"
       id="guide1384"
       inkscape:locked="false" />
    <sodipodi:guide
       position="21.607639,21.607643"
       orientation="0,-78.000005"
       id="guide1386"
       inkscape:locked="false" />
  </sodipodi:namedview>
  <metadata
     id="metadata828">
    <rdf:RDF>
      <cc:Work
         rdf:about="">
        <dc:format>image/svg+xml</dc:format>
        <dc:type
           rdf:resource="http://purl.org/dc/dcmitype/StillImage" />
      </cc:Work>
    </rdf:RDF>
  </metadata>
  <g
     inkscape:label="Icon"
     inkscape:groupmode="layer"
     id="layer1"
     transform="translate(0,-274.42223)">
    <path
       id="path13374"
       style="color:#000000;display:inline;fill:#000000;stroke-width:1;stroke-linecap:round;stroke-linejoin:round;-inkscape-stroke:none"
       d="m 9.1511589,285.97483 c -0.2119682,0.0517 -0.3999973,-0.0948 -0.3999973,-0.31296 v -2.78893 c 0,-0.29165 0.287535,-0.66855 0.5692513,-0.74403 l 1.8721801,-0.50155 c 0.197725,-0.0529 0.388945,0.37113 0.388945,0.73437 v 2.46216 c 7.07e-4,0.19454 0.158479,0.35194 0.35302,0.35233 0.194273,-7.5e-4 0.351572,-0.15806 0.352328,-0.35233 v -2.94299 c 0,-0.29165 0.289611,-0.66855 0.571327,-0.74403 l 1.872176,-0.50155 c 0.253098,-0.0678 0.386871,0.10053 0.386871,0.29775 v 2.47528 c -7.07e-4,0.19643 0.158665,0.35586 0.355094,0.3551 0.195351,-7.9e-4 0.353093,-0.15975 0.352328,-0.3551 v -2.57408 c 0,-0.61089 -0.412942,-1.15069 -1.003099,-1.30845 L 9.3597916,278.06608 C 9.0446,277.98158 8.7209405,277.93961 8.397412,277.93961 c -0.3235284,0 -0.6471879,0.042 -0.9623795,0.12647 -1.8225861,0.48819 -3.6404892,0.97667 -5.4624813,1.46526 -0.5900565,0.15811 -1.0024124,0.69414 -1.0024124,1.305 v 2.96923 c 3.48e-6,0.34062 0.1194483,0.65948 0.322623,0.91123 -0.2067722,0.18925 -0.322623,0.47237 -0.322623,0.77513 v 2.87251 c 3.48e-6,0.66741 0.4590068,1.25189 1.1074186,1.41001 l 1.8611264,0.45388 c 0.2763578,0.0674 0.5511379,0.0134 0.7744319,-0.12366 0.1948061,0.3244 0.5136409,0.5705 0.8994756,0.66459 l 1.8618163,0.45181 c 0.340436,0.083 0.6792766,-0.019 0.9222722,-0.23075 h 7.075e-4 c 0.242306,0.21182 0.5797707,0.31375 0.9201995,0.23075 l 1.2849642,-0.31364 c 0.189394,-0.0457 0.306154,-0.236 0.261138,-0.42557 -0.04568,-0.19074 -0.23784,-0.30789 -0.428319,-0.26113 l -1.284968,0.31364 c -0.2119683,0.0517 -0.3993041,-0.0954 -0.3993041,-0.31364 v -2.78892 c 0,-0.29165 0.287535,-0.66854 0.5692514,-0.74405 0.5466316,-0.14641 1.0932427,-0.29296 1.6400587,-0.43867 0.189525,-0.0481 0.304024,-0.24095 0.255611,-0.43041 -0.04782,-0.19014 -0.241188,-0.30511 -0.431085,-0.2563 z m -0.7537823,-7.32707 c 0.2620784,0 0.524026,0.0345 0.7792671,0.10294 l 1.3885913,0.37097 -2.1685515,0.5817 -2.166478,-0.581 1.3879006,-0.37167 c 0.2552411,-0.0684 0.5171922,-0.10294 0.7792705,-0.10294 z m 3.5371064,0.83937 2.176149,0.5817 -1.434876,0.3841 c -0.348307,0.0933 -0.64212,0.31313 -0.8373,0.60103 -0.254322,-0.3811 -0.81453,-0.65711 -1.24144,-0.76062 l -0.8359184,-0.22451 z m -7.0714506,7.1e-4 2.1699337,0.581 -0.8379902,0.22452 c -0.497639,0.17092 -0.9407006,0.31483 -1.2386806,0.76131 -0.1951776,-0.28814 -0.4887999,-0.50834 -0.8373003,-0.60172 l -1.4300382,-0.38342 z m 3.5343442,0.94576 c 0.734353,0.20374 1.5287482,0.39371 2.2403934,0.60933 l -1.5005084,0.40206 c -0.2950054,0.079 -0.5505613,0.24887 -0.7405818,0.47392 -0.1906182,-0.22505 -0.4469558,-0.39487 -0.7419611,-0.47392 l -1.4984352,-0.40206 c 0.7167982,-0.21915 1.500034,-0.41089 2.2410931,-0.60933 z m -6.3329418,0.20173 1.8721798,0.50155 c 0.28172,0.0755 0.5692514,0.45238 0.5692514,0.74403 v 2.78893 c 0,0.21818 -0.1880326,0.36463 -0.3999973,0.31295 -0.6232841,-0.1437 -1.2413122,-0.30712 -1.8590501,-0.47253 -0.423275,-0.10294 -0.5713277,-0.40326 -0.5713277,-0.70466 v -2.87252 c 0,-0.25971 0.1760842,-0.35479 0.3889439,-0.29775 z m 3.5377964,0.99274 1.8694175,0.50086 c 0.2817199,0.0755 0.5720173,0.45238 0.5720173,0.74402 v 2.78893 c -3.5e-6,0.21818 -0.1873429,0.36465 -0.3993075,0.31296 -0.6637097,-0.14691 -1.3432588,-0.3442 -1.9951476,-0.50017 -0.262294,-0.11898 -0.4359201,-0.37991 -0.4359235,-0.67703 v -2.4359 c 0,-0.50142 0.1587489,-0.79535 0.3889438,-0.73367 z m 10.1284238,2.82761 -2.133317,0.58444 c -0.189554,0.0515 -0.300899,0.24747 -0.248011,0.43662 0.05267,0.18808 0.247823,0.29788 0.43592,0.24525 l 2.133317,-0.58516 c 0.405777,-0.11149 0.834283,-0.11149 1.24006,0 l 0.341275,0.094 -3.655929,1.00517 c -0.0737,-0.0369 -0.151704,-0.0664 -0.233507,-0.0884 l -1.034188,-0.27704 c -0.549816,-0.14732 -1.106719,0.27986 -1.10673,0.84905 v 1.6967 c 4e-6,0.27997 0.0944,0.54381 0.256303,0.75578 -0.156652,0.15711 -0.256296,0.37203 -0.256303,0.61278 v 1.6974 c 4e-6,0.56233 0.38117,1.05789 0.924349,1.20344 l 1.033496,0.27704 c 0.265114,0.071 0.531857,0.008 0.737127,-0.13956 0.155412,0.16629 0.355973,0.29124 0.586525,0.35303 l 1.034191,0.27702 c 0.271978,0.0729 0.545747,0.005 0.753015,-0.15061 0.20732,0.15606 0.481534,0.22354 0.753708,0.15061 l 1.034189,-0.27702 c 0.230552,-0.0618 0.43111,-0.18674 0.586523,-0.35303 0.205273,0.14751 0.472017,0.21058 0.737129,0.13956 l 1.03419,-0.27704 c 0.543177,-0.14555 0.923652,-0.64111 0.923652,-1.20344 v -1.6974 c -4e-6,-0.24075 -0.09965,-0.45567 -0.256302,-0.61278 0.161904,-0.21197 0.256302,-0.47581 0.256302,-0.75578 v -1.6967 c -10e-6,-0.56919 -0.55691,-0.99637 -1.106725,-0.84905 l -1.03419,0.27704 c -0.23098,0.0619 -0.432375,0.18696 -0.587906,0.3537 -0.205103,-0.14752 -0.471157,-0.21044 -0.735747,-0.13955 l -1.034189,0.2791 c -0.222311,0.0596 -0.416941,0.17829 -0.569942,0.33575 -0.153011,-0.15747 -0.348309,-0.27617 -0.570638,-0.33575 l -0.467008,-0.12647 3.336072,-0.91606 0.410361,0.11337 c 0.188932,0.0524 0.38447,-0.0588 0.435921,-0.24802 0.05244,-0.18893 -0.05881,-0.38446 -0.248012,-0.43592 -0.696735,-0.19043 -1.391745,-0.38096 -2.089118,-0.57201 -0.559981,-0.15674 -1.077476,-0.1107 -1.615863,1e-5 z M 2.0775503,285.2156 c 0.6238041,0.14399 1.2407958,0.31446 1.8590538,0.48013 0.2817199,0.0755 0.5692513,0.4524 0.5692513,0.74405 v 2.78616 c 0,0.21817 -0.1880326,0.36739 -0.3999972,0.31571 l -1.861123,-0.45388 c -0.3351586,-0.0817 -0.5692408,-0.37834 -0.5692443,-0.72333 v -2.87251 c 0,-0.23426 0.191216,-0.33283 0.4020594,-0.27633 z m 3.5350304,0.99481 c 0.6239775,0.14242 1.2409904,0.31177 1.8590538,0.47738 0.28172,0.0755 0.5720173,0.45238 0.5720173,0.74403 v 2.78893 c -3.4e-6,0.21817 -0.1873427,0.36533 -0.3993075,0.31364 L 5.7825281,290.07982 C 5.447359,289.99812 5.2132768,289.7015 5.2132732,289.35651 v -2.87183 c 0,-0.23537 0.2077484,-0.32559 0.3993075,-0.27427 z m 6.7813133,0.34474 1.033496,0.27633 c 0.237216,0.0636 0.399308,0.27393 0.399308,0.51951 v 1.6974 c -4e-6,0.12179 -0.09854,0.19597 -0.216235,0.16442 l -1.034188,-0.27702 c -0.237217,-0.0635 -0.399308,-0.27394 -0.399308,-0.51952 v -1.6967 c 0,-0.15591 0.145096,-0.18367 0.216927,-0.16442 z m 8.506324,0.16442 v 1.6967 c 0,0.24558 -0.162092,0.45596 -0.399304,0.51952 l -1.03419,0.27702 c -0.117698,0.0315 -0.216231,-0.0426 -0.216233,-0.16442 v -1.72019 c 0.0098,-0.23568 0.169504,-0.43514 0.399306,-0.49671 l 1.03419,-0.27634 c 0.140042,-0.0376 0.216231,0.0659 0.216231,0.16442 z m -6.149176,0.32607 1.034191,0.27702 c 0.237216,0.0636 0.399303,0.27671 0.399303,0.52229 v 1.69463 c 0,0.12192 -0.09854,0.19804 -0.216234,0.16649 l -1.034186,-0.2791 c -0.237215,-0.0636 -0.399307,-0.27395 -0.399307,-0.51953 v -1.69463 c 0,-0.14201 0.131681,-0.18983 0.216233,-0.16717 z m 3.791337,0.16719 v 1.69463 c 0,0.24558 -0.162092,0.45595 -0.399308,0.51951 l -1.034189,0.2791 c -0.117697,0.0315 -0.216231,-0.0445 -0.216231,-0.16649 v -1.69465 c 0,-0.24558 0.162088,-0.45871 0.399305,-0.52228 l 1.034189,-0.27702 c 0.134485,-0.0361 0.216234,0.0606 0.216234,0.1672 z m -6.148485,2.40757 1.033496,0.27635 c 0.237206,0.0635 0.399308,0.27393 0.399308,0.5195 v 1.6974 c -4e-6,0.12178 -0.09853,0.19595 -0.216235,0.16442 l -1.034188,-0.27633 c -0.237206,-0.0635 -0.399308,-0.27395 -0.399308,-0.51952 v -1.6974 c 0,-0.15881 0.140603,-0.18487 0.216927,-0.16442 z m 8.506324,0.16442 v 1.6974 c 0,0.24557 -0.162099,0.45596 -0.399304,0.51952 l -1.03419,0.27633 c -0.117711,0.0315 -0.216231,-0.0425 -0.216233,-0.16442 v -1.72019 c 0.0098,-0.23567 0.169512,-0.43515 0.399306,-0.49671 l 1.03419,-0.27635 c 0.136487,-0.0366 0.216231,0.0483 0.216231,0.16442 z m -5.11499,0.60322 c 0.237217,0.0636 0.399304,0.2767 0.399304,0.52227 v 1.69463 c 0,0.12179 -0.09854,0.19873 -0.216234,0.16719 l -1.034187,-0.27703 c -0.237214,-0.0636 -0.399306,-0.27672 -0.399306,-0.52229 0,-0.56488 0,-1.12975 0,-1.69463 0,-0.10668 0.0756,-0.17887 0.173399,-0.1741 z m 2.757151,-0.10995 v 1.69462 c 0,0.24557 -0.162092,0.45872 -0.399308,0.52229 l -1.034189,0.27702 c -0.117697,0.0315 -0.216231,-0.0455 -0.216231,-0.16718 v -1.69463 c 0,-0.24557 0.162088,-0.45871 0.399305,-0.52228 l 1.034189,-0.27703 c 0.145163,-0.0389 0.216234,0.0528 0.216234,0.16719 z"
       sodipodi:nodetypes="csscccccccccccsccccccccccsscccccccccccssscccccscccccsccccccccccccccccccccccccccccccccsccccccccccccccccccccscccccccccccsccscccccccccccccccccsscccccccsccccccccccccscccccccccccccsscccccccccsscccccccccscccscccccccscsccsccccsccsscccs" />
  </g>
</svg>
